<?xml version="1.0" encoding="UTF-8"?><svg id="Artwork" xmlns="http://www.w3.org/2000/svg" viewBox="0 0 576 364"><defs><style>.cls-1{fill:#fff;}</style></defs><g><path class="cls-1" d="M295.1,72.28h-2v.03c-.2,.79-1.02,2.05-1.93,2.4-1.77,.67-2.68-.07-3.35-.85-.67,.78-1.57,1.52-3.35,.85-.92-.35-1.74-1.61-1.93-2.4v-.03h-2.11l-1.18,6.15h17.24l-1.4-6.15Z"/><path class="cls-1" d="M287.81,73.85s.01,0,.01,.01c0,0,0,0,.01-.01h-.03Z"/><path class="cls-1" d="M280.87,106.24h-1.83v17.13h17.66v-17.13h-1.83c.05-.21,.1-.41,.11-.46l.04-.16c.11-.27,.28-.82,.23-1.53-.04-.59-.21-1.05-.32-1.3,.05-.2,.11-.48,.16-.81,0,0,.22-1.41-.13-2.89-.51-2.2-1.85-3.49-2.96-4.56-.18-.17-.48-.39-.72-.58,.74-.49,1.33-1.37,1.32-2.39,0-1.02-.59-2.28-1.58-2.48-.66-.13-1.21,.27-1.39,.42,0-.07-.04-.31-.22-.51s-.39-.24-.45-.24c.13-.16,.49-.65,.46-1.31-.05-1.09-1.15-1.95-1.52-1.74-.02,0-.03,.02-.04,.03-.01-.01-.03-.02-.04-.03-.37-.21-1.47,.65-1.52,1.74-.03,.66,.34,1.15,.46,1.31-.06,0-.27,.04-.45,.24-.18,.2-.21,.44-.22,.51-.18-.15-.74-.55-1.39-.42-.99,.19-1.57,1.46-1.58,2.48,0,1.03,.58,1.9,1.32,2.39-.23,.2-.54,.42-.71,.58-1.11,1.07-2.45,2.35-2.96,4.56-.34,1.48-.13,2.89-.13,2.89,.05,.34,.11,.62,.16,.81-.12,.25-.29,.71-.32,1.3-.04,.7,.13,1.24,.21,1.52,0,0,.08,.31,.16,.63Zm13.9,15.43h-13.78v-13.84h1.46v10.75h0v1.64h10.87v-12.38h1.46v13.84Zm-10.42-30.06c0-.56,.34-1.17,.71-1.22,.29-.04,.38,.3,.94,.49,.22,.07,.69,.22,.94-.05,.23-.25,.16-.72,.14-.8,.16-.11,.39-.3,.54-.61,.13-.27,.21-.63,.19-.97,.04,0,.08,0,.12-.01-.03,.35,.05,.71,.19,.98,.16,.31,.38,.5,.54,.61-.02,.08-.09,.55,.14,.8,.26,.28,.72,.12,.94,.05,.57-.18,.65-.53,.94-.49,.38,.05,.72,.67,.71,1.22-.01,.81-.76,1.38-1.36,1.43-.21-.14-.49-.26-.72-.39,.03-.1,.09-.2,.16-.2,.08,0,.1,.13,.2,.19,.2,.12,.67-.1,.76-.49,.08-.37-.21-.71-.42-.85-.48-.33-1.26-.14-1.64,.44-.07,.11-.05,.24-.09,.36-.14-.06-.22-.14-.36-.19v-.05s-.04,.02-.06,.02c-.02,0-.04-.02-.06-.02v.05c-.14,.06-.23,.13-.36,.19-.04-.12-.02-.25-.09-.36-.38-.58-1.16-.77-1.64-.44-.21,.14-.5,.49-.42,.85,.09,.39,.56,.61,.76,.49,.1-.06,.12-.19,.2-.19,.07,0,.13,.1,.16,.2-.24,.13-.51,.25-.72,.39-.6-.05-1.34-.62-1.36-1.43Zm-.6,4.96c.92-1.24,2.02-1.98,2.99-2.45,.06-.03,.11-.05,.16-.09,.35-.16,.69-.29,.98-.39,.29,.1,.63,.23,.98,.39,.05,.04,.11,.06,.16,.09,.96,.47,2.06,1.21,2.99,2.45,1.57,2.1,2.04,4.82,1.8,4.96-.08,.05-.24-.24-.72-.47-.32-.15-.62-.19-.85-.2,.05-.33,.4-2.76-1.14-4.76-1.17-1.52-2.69-1.83-3.19-1.9h0s-.02,0-.04,0c-.01,0-.03,0-.04,0h0c-.5,.08-2.02,.39-3.19,1.91-1.53,1.99-1.19,4.43-1.14,4.76-.23,0-.53,.05-.85,.2-.49,.23-.64,.52-.72,.47-.24-.14,.24-2.86,1.8-4.96Zm-1.64,6.87c.51-1.03,1.69-1.56,2.54-1.24,.14,.05,.78,.32,.87,.92,.05,.39-.12,.92-.49,1.02-.37,.1-.75-.32-.72-.39,.02-.05,.24,.11,.41,0,.22-.14,.3-.63,.14-.92-.23-.43-1.02-.47-1.44-.1-.55,.49-.48,1.73,.04,2.4,.63,.82,1.92,.78,2.69,.06,.86-.8,.91-2.3,.32-3.25-.51-.82-1.34-.98-1.53-1.02-.09-.36-.35-1.56,.18-2.85,.76-1.85,2.49-2.28,2.76-2.33,.26,.06,2,.48,2.76,2.33,.53,1.29,.27,2.49,.18,2.85-.19,.03-1.02,.2-1.53,1.02-.59,.95-.54,2.45,.32,3.25,.77,.72,2.06,.75,2.69-.06,.52-.67,.59-1.91,.04-2.4-.42-.37-1.21-.33-1.44,.1-.15,.29-.07,.78,.14,.92,.18,.11,.4-.05,.41,0,.02,.06-.35,.48-.72,.39-.36-.09-.54-.63-.49-1.02,.08-.6,.73-.86,.87-.92,.86-.32,2.03,.21,2.54,1.24,.57,1.15,.06,2.39-.04,2.62-.03,.07-.07,.1-.1,.17h-1.06l-.88,1.54h-.04v10.81h-7.32v-10.75h0v-.06h-.03l-.88-1.54h-1.07c-.03-.06-.07-.1-.1-.17-.1-.23-.61-1.48-.04-2.62Z"/><path class="cls-1" d="M277.68,126.52h22.38v-23.49h-4.42c.01,.16,.03,.51-.1,.91-.15,.47,.37,.71,.27,.79h2.25v20.18h-20.38v-20.18h2.25c-.1-.08,.42-.32,.27-.79-.13-.39-.11-.75-.1-.91h-4.42v23.49h2Z"/><path class="cls-1" d="M346.63,137.21v-1.45h-19.14v-1.42h15.15v-1.7h-17.11v-1.42h12.73v-1.7h-12.73v-1.42h8.66v-1.7h-8.66v-1.42h4.52v-1.7h-4.52v-.84c1.12-.29,1.73-1.44,1.73-1.44,0,0-.24-1.46,.55-3.24,.79-1.78,2.46-2.42,2.46-2.42-.2-.31-.94-1.4-2.37-1.84-1.22-.38-2.25-.07-2.61,.06,.04-.54,.07-1.9-.7-3.34-.67-1.25-1.59-1.91-2.04-2.19,.11-.23,.74-1.65,.12-3.21-.78-1.97-2.81-2.35-2.99-2.38-.19,.03-2.22,.41-2.99,2.38-.62,1.57,.02,2.98,.12,3.21-.45,.28-1.37,.95-2.04,2.19-.77,1.44-.74,2.8-.7,3.34-.36-.13-1.39-.44-2.61-.06-.66,.2-1.16,.55-1.54,.89h-5.69v-12.44h1.35c1.69,0,3.01-.03,3.95-.03,.52,0,1.29,0,2,0v-.1c-.49-.5-1.33-1.88-1.24-2.66,.09-.75,1.05-1.03,1.72-1.87,1.14-1.43,1.77-3.45,1.38-5.14-.19-.84-.47-1.75-1.03-2.55-.43-.8-1.63-1.82-3.79-2.15-.59-.09-2.26-.1-3.26,.96-1,1.06-.77,2.59-.73,2.79,.06-.07,.92-.81,2.19-.6,.92,.15,1.31,.9,1.55,1.7,.42,1.4-.56,2.47-1.82,2.83-1.09,.31-2.85,.16-3.66-1.31-.2-.37-.72-1.03-.97-1.94-.19-.6-.29-1.14-.34-1.75-.08-.89-.16-1.91,.74-2.99,.48-.58,1.67-.77,1.67-.77l-.44-.77h.04l-1.2-2.21h-2.85v-1.8h.83c.36,1.15,1.13,1.62,3.82-.28,.41-.29,1.91-.38,2.57-.38v-.09c-.44-.47-1.22-1.77-1.14-2.5,.08-.71,.63-.89,1.26-1.69,1.05-1.34,1.44-3.28,1.08-4.87-.18-.79-.51-1.4-.81-1.84-.21-.35-1.31-2.11-3.31-2.41-.54-.08-1.9-.29-2.83,.71-.92,1-.71,2.43-.68,2.62,.06-.07,.86-.95,2.03-.75,.85,.14,1.53,.79,1.75,1.54,.39,1.31-.65,2.93-2.07,3.25-1.22,.27-2.55-.46-3.11-1.79-.5-.94-1.18-2.28-1.69-3.23l-.06-.25s0,0,.01,0c-.12-.38-.28-.78-.45-1.34-.09-.3-.06-.58,0-.81h1.33c.08,0,.15,.01,.23,.02,.09-.43,.64-1.92,1.93-3.12,.77-.72,1.6-.63,2.55-.69-.24-.55-.56-1.49-.81-2.06v-.11h-4.95v-1.55h1.55c.14,.04,.32,.04,.53,0h.45v-.14c.4-.16,.89-.43,1.51-.88,.34-.24,1.57-.32,2.12-.31v-.08c-.36-.39-1.01-1.47-.93-2.08,.07-.59,.52-.74,1.03-1.4,.87-1.12,1.18-2.73,.89-4.05-.15-.65-.37-1.29-.62-1.66-.17-.29-1.12-1.63-2.77-1.88-.45-.07-1.57-.24-2.33,.59-.76,.83-.58,2.02-.56,2.18,.05-.06,.72-.63,1.68-.46,.7,.12,1.04,.55,1.22,1.17,.32,1.09-.43,2.15-1.6,2.41-1,.22-1.79-.3-2.34-1.29-.29-.55-.68-1.22-1.05-1.86l-1.3-7.34-.38,.07h-1.94c-.18-.55-.62-1.04-1.17-1.25,.04-.2,.22-.51,.4-.76,.36,.15,.76,.25,1.26,.28,1.37,.1,2.08-1.64,2.08-1.64,0,0-.22-1.54,.49-3.42,.71-1.88,2.21-2.55,2.21-2.55-.18-.33-.84-1.48-2.13-1.94-1.1-.4-2.02-.07-2.35,.07,.03-.57,.06-2.01-.63-3.52-.6-1.32-1.43-2.02-1.83-2.31,.1-.24,.66-1.74,.11-3.39-.7-2.08-2.52-2.48-2.69-2.51-.17,.03-1.99,.43-2.69,2.51-.55,1.65,.01,3.15,.11,3.39-.4,.29-1.23,1-1.83,2.31-.69,1.52-.66,2.95-.63,3.52-.33-.14-1.25-.47-2.35-.07-1.29,.47-1.96,1.62-2.13,1.94,0,0,1.5,.67,2.21,2.55,.71,1.88,.49,3.42,.49,3.42,0,0,.71,1.74,2.08,1.64,.51-.04,.9-.14,1.26-.28,.18,.25,.36,.55,.4,.76-.55,.21-.99,.7-1.17,1.25h-1.94l-.38-.07-1.3,7.35c-.37,.64-.76,1.31-1.05,1.86-.55,.99-1.34,1.51-2.34,1.29-1.17-.26-1.91-1.32-1.6-2.41,.18-.62,.52-1.05,1.22-1.17,.97-.16,1.63,.4,1.68,.46,.03-.16,.2-1.35-.56-2.18-.76-.83-1.88-.66-2.33-.59-1.65,.25-2.6,1.59-2.77,1.88-.25,.36-.47,1-.62,1.66-.3,1.32,.02,2.94,.89,4.05,.51,.66,.96,.81,1.03,1.4,.07,.61-.57,1.69-.94,2.08v.08c.54,0,1.78,.07,2.12,.31,.63,.45,1.11,.71,1.51,.88v.14h.45c.21,.04,.39,.04,.53,0h1.55v1.55h-4.95v.11c-.25,.58-.57,1.51-.81,2.06,.95,.06,1.77-.03,2.55,.69,.84,.78,1.34,1.65,1.63,2.3,.11,.3,.22,.6,.25,.8h.05s0,.01,0,.02c.08,0,.15-.01,.23-.02h1.37c.06,.24,.09,.51,0,.81-.14,.46-.3,.94-.42,1.32h0s0,.02,0,.02h0c-.51,.96-1.3,2.54-1.8,3.5-.56,1.33-1.89,2.06-3.11,1.79-1.42-.31-2.46-1.93-2.07-3.25,.22-.75,.91-1.4,1.75-1.54,1.17-.2,1.97,.68,2.03,.75,.03-.19,.25-1.63-.68-2.62-.93-1-2.29-.79-2.83-.71-2,.3-3.1,2.06-3.31,2.41-.3,.44-.63,1.05-.81,1.84-.36,1.59,.02,3.53,1.08,4.87,.63,.8,1.17,.98,1.26,1.69,.09,.73-.69,2.03-1.14,2.5v.09c.66,0,2.16,.09,2.57,.38,2.7,1.89,3.46,1.42,3.82,.28h.82v1.8h-2.85l-1.2,2.21h.04l-.44,.77s1.19,.18,1.67,.77c.89,1.08,.82,2.1,.74,2.99-.06,.61-.16,1.15-.34,1.75-.25,.91-.77,1.57-.97,1.94-.81,1.47-2.56,1.63-3.66,1.31-1.26-.36-2.24-1.43-1.82-2.83,.24-.8,.63-1.54,1.55-1.7,1.27-.21,2.12,.53,2.19,.6,.03-.2,.27-1.73-.73-2.79-1-1.06-2.68-1.05-3.26-.96-2.16,.32-3.36,1.35-3.79,2.15-.56,.8-.84,1.71-1.03,2.55-.39,1.69,.24,3.72,1.38,5.14,.68,.85,1.63,1.12,1.72,1.87,.09,.78-.75,2.16-1.23,2.66v.1c.7,0,1.47,0,1.99,0,.94,0,2.26,.02,3.95,.03h0c.46,0,.9,0,1.35,0v12.44h-5.69c-.38-.34-.88-.68-1.54-.89-1.22-.38-2.25-.07-2.61,.06,.04-.54,.07-1.9-.7-3.34-.67-1.25-1.59-1.91-2.04-2.19,.11-.23,.74-1.65,.12-3.21-.78-1.97-2.81-2.35-2.99-2.38-.19,.03-2.22,.41-2.99,2.38-.62,1.57,.02,2.98,.12,3.21-.45,.28-1.37,.95-2.04,2.19-.77,1.44-.74,2.8-.7,3.34-.36-.13-1.39-.44-2.61-.06-1.43,.44-2.17,1.53-2.37,1.84,0,0,1.67,.64,2.46,2.42s.55,3.24,.55,3.24c0,0,.61,1.15,1.73,1.44v.84h-4.52v1.7h4.52v1.42h-8.66v1.7h8.66v1.42h-12.73v1.7h12.73v1.42h-17.11v1.7h15.15v1.42h-19.14v1.45h-5.63v1.92h128.77v-1.92h-5.63Zm-36.95-42.13c1.06-1.56,.39-3.41,.32-3.59-.7-1.83-2.44-2.37-2.65-2.44,.33,0,1.49,.03,2.54,.91,1.3,1.09,1.34,2.05,1.43,2.58,.03,.48,.1,1.16-.17,1.97-.27,.8-.4,1.13-.95,1.4-.21,.1-.6,.4-.78,.35-.44-.13-.78-.1-1.13-.01,.34-.16,.93-.51,1.38-1.17Zm-3.04,2.95c.34,.04,.6-.11,.71-.16,.49-.21,1.33,.14,1.31,.99-.02,.46-.2,.98-.8,1.18-.68,0-.9-.06-.9-.06,0,0,.05-.6-.02-.92-.12-.6-.57-.98-.72-1.17,.09,.05,.24,.11,.43,.13Zm-1.55-23.69c.98-1.46,.4-2.92,.34-3.1-.65-1.72-2.41-2.35-2.6-2.4,.31,0,1.46,.19,2.37,1.11,1.02,1.02,1.08,1.72,1.17,2.22,.03,.45,.07,.92-.08,1.72-.14,.69-.32,1-.68,1.42-.15,.18-.39,.46-.78,.22-.38-.23-.79-.02-1.11,.07,.32-.15,.97-.64,1.39-1.27Zm-2.92,2.93c.32,.03,.51,.17,.61,.11,.71-.44,1.07-.39,1.38,.32,.29,.67-.3,1.49-.74,1.83-.6,.4-.91,.66-1.53,.67,.05-.22,.61-1.51,.51-2.02-.11-.56-.48-.86-.63-1.04,.09,.05,.22,.11,.4,.13Zm-31.24-1.73c-.4,.24-.63-.05-.78-.22-.36-.42-.54-.73-.68-1.42-.16-.8-.12-1.27-.08-1.72,.09-.5,.15-1.2,1.17-2.22,.91-.92,2.06-1.11,2.37-1.11-.19,.06-1.96,.68-2.6,2.4-.06,.17-.64,1.63,.34,3.1,.42,.62,1.07,1.11,1.39,1.27-.32-.08-.73-.29-1.11-.07Zm2.93,4.67c-.62-.01-.92-.26-1.53-.67-.45-.34-1.03-1.16-.74-1.83,.31-.71,.67-.77,1.38-.32,.1,.06,.29-.08,.61-.11,.17-.02,.31-.08,.4-.13-.14,.18-.51,.48-.63,1.04-.1,.52,.46,1.8,.51,2.02Zm-8.31,15.71c-.55-.27-.68-.6-.95-1.4-.28-.81-.21-1.49-.17-1.97,.1-.53,.14-1.49,1.43-2.58,1.05-.88,2.21-.91,2.54-.91-.21,.06-1.95,.61-2.65,2.44-.07,.18-.74,2.03,.32,3.59,.45,.66,1.04,1.01,1.38,1.17-.35-.09-.69-.12-1.13,.01-.17,.05-.56-.25-.78-.35Zm3.27,3.15c-.06,.31-.02,.92-.02,.92,0,0-.22,.06-.9,.06-.6-.2-.79-.72-.8-1.18-.03-.85,.82-1.2,1.3-.99,.11,.05,.37,.19,.71,.16,.19-.02,.34-.08,.43-.13-.15,.19-.6,.57-.72,1.17Zm54.19,21.1c-.03-.29-.2-1.47-1.18-2.35-.75-.67-1.56-.82-1.88-.86h-.52c-.32,.04-1.14,.18-1.88,.86-.98,.89-1.15,2.06-1.18,2.35-.04-.15-.7-2.83,.97-4.58,.71-.74,1.54-1.01,2.01-1.11h.7c.46,.1,1.3,.37,2.01,1.11,1.67,1.75,1.01,4.43,.97,4.58Zm-5.47,.7c.82-1.27,.88-1.94,1.52-2.23,.56-.25,.59-.27,.59-.27h.03s.06,.01,.63,.27c.64,.29,.7,.95,1.52,2.23,.21,.33,.43,.6,.65,.81h-5.59c.22-.22,.44-.48,.65-.81Zm-1.69,2.58h.94v10.79h-.94v-10.79Zm6.73,0h.94v10.79h-.94v-10.79Zm3.35-8.56c1-.1,1.73,.36,1.94,.51-.39,.34-1.06,1-1.52,2.07-.6,1.37-.52,2.61-.46,3.15-.08,.11-.25,.32-.55,.45-.53,.22-1.02-.05-1.09-.1,.18-.47,.46-1.38,.39-2.54-.07-1.17-.46-2.04-.7-2.48,.15-.18,.84-.94,1.97-1.05Zm-9.97-3.69c.86-1.89,2.5-2.55,2.83-2.67-.08-.07-1.03-.91-.91-2.23,.09-.97,.71-1.81,1.61-2.16h.39c.9,.35,1.52,1.19,1.61,2.16,.12,1.32-.83,2.16-.91,2.23,.33,.12,1.96,.78,2.83,2.67,.92,2,.27,3.85,.15,4.17-.24-.4-.67-1-1.37-1.53-.87-.67-1.74-.9-2.22-.99h-.58c-.48,.09-1.34,.32-2.22,.99-.69,.53-1.12,1.13-1.37,1.53-.12-.31-.76-2.17,.15-4.17Zm-2.52,3.69c1.14,.11,1.82,.87,1.97,1.05-.24,.44-.63,1.31-.7,2.48-.07,1.17,.21,2.07,.39,2.54-.07,.04-.56,.31-1.09,.1-.3-.12-.47-.34-.55-.45,.06-.54,.14-1.78-.46-3.15-.46-1.06-1.13-1.73-1.52-2.07,.21-.15,.94-.61,1.94-.51Zm-3.84,.75c.56,.32,1.43,.97,1.95,2.14,.79,1.78,.55,3.24,.55,3.24,0,0,.61,1.15,1.73,1.44v11.81h-.99v-1.45h.04v-1.7h-.09v-1.6h-4.86v-1.42h4.86v-1.7h-8.56v-1.42h8.45l.03-1.7h-8.48v-1.82h7.05l-.43-1.49h-6.62v-1.33h6.43l-.72-1.33h-5.72v-1.7h5.37Zm-38.34,14.04h33.24v1.45h-33.24v-1.45Zm38.08,3.15v1.45h-42.91v-1.45h42.91Zm-11.77-49.41h-2.58v-1.8h2.58v1.8Zm-19.72-4.02l1.94-8.71h0s3,.01,3,.01c.2,1.42,1.32,2.55,2.47,2.68,.13,.01,1.48,.14,2.06-.95,.27-.51,.41-1.35,0-1.98-.42-.64-1.27-.85-1.79-.48-.23,.16-.55,.54-.46,.95,.1,.43,.61,.68,.83,.54,.11-.07,.13-.21,.22-.21,.1,0,.23,.19,.2,.33-.04,.22-.44,.34-.69,.35-.67,.03-1.59-.66-1.61-1.61,0-.62,.37-1.3,.78-1.36,.32-.04,.41,.34,1.03,.54,.24,.08,.75,.25,1.03-.06,.26-.28,.17-.8,.15-.89,.18-.12,.42-.33,.59-.68,.22-.46,.31-1.13,.07-1.65-.13-.28-.32-.41-.27-.6,.05-.19,.26-.18,.42-.35,.02-.02,.03-.04,.05-.06,.02,.02,.03,.04,.05,.06,.16,.17,.38,.16,.42,.35,.05,.19-.14,.32-.27,.6-.24,.51-.15,1.19,.07,1.65,.17,.35,.41,.56,.59,.68-.02,.09-.1,.61,.15,.89,.28,.31,.79,.14,1.03,.06,.62-.2,.71-.58,1.03-.54,.41,.05,.79,.74,.78,1.36-.01,.95-.93,1.63-1.61,1.61-.25,0-.66-.13-.69-.35-.02-.14,.1-.33,.2-.33,.09,0,.11,.15,.22,.21,.22,.14,.73-.11,.83-.54,.09-.41-.23-.79-.46-.95-.52-.37-1.37-.16-1.79,.48-.41,.63-.27,1.47,0,1.98,.58,1.09,1.93,.96,2.06,.95,1.15-.13,2.27-1.26,2.47-2.68h3.02l1.93,8.69h-20.07Zm6.05,2.21v1.8h-1.41v-1.8h1.41Zm1.71,0h1.41v1.8h-1.41v-1.8Zm3.12,1.63v-1.63h1.41v1.8h-1.41v-.18Zm3.12-1.63h1.41v1.8h-1.41v-1.8Zm8.61-4.02c.46,.3,.6,.83,.64,1,.08,.31,.03,.57-.06,.81h-1.73l-.38-1.72c.55-.27,1.12-.37,1.54-.09Zm-13.44-16.07v-1.55h1.71v1.55h-1.71Zm3.12,0v-1.55h1.71v1.55h-1.71Zm-4.54-1.55v1.55h-1.71v-1.55h1.71Zm9.37,1.55h-1.71v-1.55h1.71v1.55Zm6.9-8.27c.81-1.22,.27-2.54,.22-2.68-.53-1.43-1.98-1.95-2.14-2,.25,0,1.23,.11,1.95,.92,.67,.75,.71,1.35,.78,1.76,.03,.38,.05,.92-.03,1.37-.09,.47-.2,.62-.49,.97-.13,.15-.45,.55-.57,.54-.35-.02-.65-.01-.91,.06,.26-.13,.86-.43,1.2-.95Zm-2.47,2.33c.26,.03,.41,.12,.5,.1,.31-.11,.77-.17,1.02,.42,.24,.55-.34,.96-.7,1.25-.5,.34-.43,.27-.93,.27,.04-.19,.39-.85,.3-1.28-.09-.47-.4-.71-.52-.86,.07,.04,.18,.09,.33,.1Zm-4.53-.53h-2.08s.02-.05,.02-.05c.24-.53,.36-.79,.43-1.1,.03-.15,.08-.39,.04-.7,0-.07-.03-.28-.15-.53-.07-.15-.15-.26-.2-.35,.04-.14,.08-.33,.12-.56,0,0,.16-.97-.09-1.99-.37-1.52-1.22-2.6-2.02-3.34-.26-.23-.65-.48-1.09-.73,.07,0,.15,0,.17,0,.65-.06,1.29-.39,1.71-.94h1.33l1.82,10.29Zm-7.42-11.43c-.34-.45-1.21-.63-1.63-.38-.19,.11-.39,.44-.31,.72,.08,.3,.48,.48,.66,.39,.09-.05,.19-.13,.26-.13,.08,0,.07,.09,.06,.19-.01,.1-.25,.2-.53,.17-.21-.02-.39-.11-.57-.2l.04-1.41h-.23s.07-.08,.13-.09c.25-.08,.36-.01,.87,.13,.2,.06,.61,.17,.84-.04,.21-.2,.22-.5,.21-.57,.15-.08,.33-.21,.47-.46,.08-.15,.13-.33,.15-.52,.02,.19,.07,.38,.15,.52,.14,.24,.33,.37,.47,.46-.01,.07,0,.37,.21,.57,.23,.21,.65,.1,.84,.04,.51-.14,.62-.21,.87-.13,.06,.02,.08,.07,.13,.09h-.16l.03,1.38c-.18,.12-.4,.2-.64,.23-.28,.03-.52-.07-.53-.17-.01-.1-.03-.19,.06-.19,.08,0,.17,.09,.26,.13,.18,.09,.58-.09,.66-.39,.08-.28-.13-.61-.31-.72-.43-.26-1.29-.07-1.63,.38-.33,.43-.18,1.02,.03,1.38-.16-.06-.27-.13-.43-.19h-.03c-.17,.06-.28,.13-.43,.19,.21-.36,.36-.95,.03-1.38Zm.42-2.34c0-.18-.01-.37-.1-.52-.11-.2-.33-.33-.29-.46,.04-.13,.21-.12,.35-.24,.01-.01,.03-.03,.04-.04h.01s.03,.03,.04,.04c.13,.12,.31,.11,.35,.24,.04,.13-.19,.26-.29,.46-.08,.15-.1,.34-.1,.52Zm-2.99-2.59c-.03-.16-.63-2.98,.87-4.83,.64-.78,1.39-1.06,1.8-1.17h.63c.42,.11,1.16,.39,1.8,1.17,1.5,1.85,.91,4.67,.87,4.83-.03-.31-.18-1.55-1.07-2.48-.67-.71-1.4-.86-1.69-.91h-.46c-.29,.04-1.02,.19-1.69,.91-.88,.94-1.04,2.17-1.07,2.48Zm8.61-5.57c.9-.1,1.56,.38,1.75,.54-.35,.36-.95,1.06-1.37,2.18-.54,1.44-.47,2.75-.41,3.32-.07,.11-.23,.34-.49,.47-.48,.23-.92-.06-.98-.1,.16-.5,.42-1.45,.35-2.68-.06-1.23-.41-2.15-.63-2.62,.14-.19,.75-.99,1.78-1.11Zm-8.96-3.89c.78-1.99,2.25-2.69,2.54-2.82-.07-.07-.93-.95-.82-2.35,.08-1.02,.64-1.91,1.45-2.28h.36c.81,.37,1.37,1.26,1.45,2.28,.11,1.39-.75,2.28-.82,2.35,.29,.13,1.76,.83,2.54,2.82,.82,2.11,.24,4.06,.14,4.39-.22-.42-.6-1.05-1.23-1.61-.79-.7-1.56-.95-1.99-1.04h-.52c-.43,.09-1.21,.34-1.99,1.04-.63,.56-1.01,1.19-1.23,1.61-.1-.33-.69-2.28,.14-4.39Zm-1.75,10.4c-.27-.13-.42-.35-.49-.47,.06-.57,.13-1.88-.41-3.32-.42-1.12-1.01-1.82-1.37-2.18,.19-.16,.85-.64,1.75-.54,1.02,.12,1.64,.92,1.78,1.11-.21,.47-.57,1.38-.63,2.62-.06,1.23,.19,2.19,.36,2.68-.07,.05-.5,.33-.98,.1Zm3.17-.2c.74-1.34,.79-2.04,1.37-2.35,.5-.26,.53-.28,.53-.28l.03-.02s.05,.03,.56,.3c.57,.3,.63,1.01,1.37,2.35,.26,.47,.52,.78,.8,1.04-.15,.14-.34,.36-.48,.7-.07,.17-.08,.32-.11,.48-.23,.06-.42,.15-.51,.21,0-.05-.04-.22-.2-.37-.16-.16-.29-.19-.35-.2,.11-.12,.43-.54,.41-1.05-.04-.85-1.11-1.42-1.44-1.26-.01,0-.03,.02-.04,.03h-.01s-.03-.02-.04-.03c-.33-.16-1.4,.41-1.44,1.26-.02,.51,.29,.92,.41,1.05-.06,0-.19,.04-.35,.2-.16,.16-.19,.32-.2,.37-.09-.06-.27-.15-.51-.21-.03-.16-.03-.31-.11-.48-.14-.34-.33-.56-.48-.7,.28-.26,.54-.58,.8-1.04Zm-3.26,5.34h1.33c.42,.55,1.06,.88,1.71,.94,.02,0,.1,0,.17,0-.45,.25-.84,.49-1.09,.73-.8,.74-1.65,1.82-2.02,3.34-.25,1.02-.09,1.99-.09,1.99,.03,.23,.08,.43,.12,.56-.04,.09-.12,.2-.2,.35-.12,.24-.14,.46-.15,.53-.04,.31,0,.55,.04,.7,.06,.31,.18,.57,.42,1.1,0,0,.01,.03,.02,.05h-2.08l1.82-10.29Zm-4.93,11.08c.51-.34,1.28-.19,1.84,.42,0,0,0-.01,0-.02h5.86l-.81-.8c-.17-.16-.39-.36-.57-.65-.29-.46-.45-1.21-.19-1.85,.33-.81,1.28-1.29,1.95-1.06,.05,.02,.59,.21,.66,.68,.04,.29-.09,.69-.37,.76-.28,.07-.57-.24-.55-.29,.01-.03,.18,.08,.32,0,.17-.1,.23-.47,.11-.68-.18-.31-.89-.38-1.26-.02-.4,.39-.39,1.24,.01,1.74,.49,.6,1.64,.55,2.23,.03,.69-.61,.76-1.84,.34-2.49-.36-.56-.95-.88-1.14-.92-.38-.09-.73-.1-.94-.07-.32,.04-.49,.15-.55,.17-.31,.14-.39,.28-.45,.25-.15-.08,0-1.51,1.02-2.87,.84-1.12,1.91-1.63,2.58-1.87h.06c.67,.24,1.74,.75,2.58,1.87,1.01,1.36,1.17,2.79,1.02,2.87-.05,.03-.14-.11-.45-.25-.05-.02-.23-.14-.55-.17-.21-.02-.56-.02-.94,.07-.19,.05-.78,.37-1.14,.92-.43,.65-.36,1.88,.34,2.49,.59,.52,1.74,.57,2.23-.03,.41-.5,.41-1.34,.01-1.74-.37-.36-1.08-.3-1.26,.02-.12,.21-.06,.58,.11,.68,.14,.08,.3-.03,.32,0,.02,.05-.27,.36-.55,.29-.28-.07-.41-.47-.37-.76,.07-.47,.61-.66,.66-.68,.68-.23,1.62,.24,1.95,1.06,.26,.65,.1,1.39-.19,1.85-.18,.3-.4,.5-.57,.65l-.81,.8h5.86s0,.01,0,.02c.55-.61,1.33-.75,1.84-.42,.38,.25,.49,.69,.53,.83,.11,.45-.07,.81-.3,1.08h-20.69c-.23-.27-.41-.64-.3-1.08,.03-.14,.15-.58,.53-.83Zm-3.59-1.7c-.12,0-.45-.39-.57-.54-.29-.35-.4-.5-.49-.97-.08-.45-.06-1-.03-1.37,.07-.42,.12-1.01,.78-1.76,.72-.81,1.7-.92,1.95-.92-.16,.05-1.61,.57-2.14,2-.05,.14-.59,1.46,.22,2.68,.34,.52,.94,.82,1.2,.95-.27-.07-.57-.08-.91-.06Zm.65,1.96c.26-.59,.71-.52,1.02-.42,.09,.03,.24-.07,.5-.1,.14-.02,.26-.06,.33-.1-.12,.15-.42,.4-.52,.86-.09,.43,.26,1.09,.3,1.28-.51,0-.44,.06-.93-.27-.37-.29-.94-.7-.7-1.25Zm5.95,3.87h1.71v1.55h-1.71v-1.55Zm1.57,7.52c.1-.32,.29-.78,.62-1.18,.88-1.07,2.14-.97,2.14-1.03,0-.06-1.04-.1-5.66-.04-.18-.31-.39-.64-.65-.96-.19-.23-.36-.35-.55-.54h19.25c-.19,.19-.36,.31-.55,.54-.26,.32-.48,.65-.65,.96-4.7-.06-5.95-.02-5.95,.04,0,.06,1.26-.04,2.14,1.03,.34,.41,.52,.86,.62,1.18h1.94c0,.3,0,.6,.07,.97,.05,.27,.14,.49,.21,.73h-2.48c-.26-.81-.78-1.53-1.53-1.68-.72-.14-1.32,.3-1.52,.47,0-.08-.04-.34-.24-.56-.19-.22-.42-.26-.49-.27,.14-.18,.54-.72,.51-1.45-.05-1.22-1.26-2.17-1.66-1.94-.02,0-.03,.02-.05,.04-.02-.01-.03-.03-.05-.04-.4-.23-1.61,.72-1.66,1.94-.03,.73,.37,1.28,.51,1.45-.07,0-.3,.05-.49,.27-.19,.22-.23,.48-.24,.56-.2-.16-.8-.61-1.52-.47-.75,.15-1.27,.88-1.53,1.68h-2.44c.07-.24,.16-.46,.21-.73,.07-.37,.07-.67,.07-.97h1.6Zm-7.06,10.1c.43-.28,1.01-.18,1.56,.1l-.39,1.71h-1.75c-.1-.24-.14-.51-.06-.81,.04-.16,.18-.7,.64-1Zm2.9,4.02h2.58v1.8h-2.58v-1.8Zm1.75,20.36c-.05-.12-.14-.57-.14-1.08,0-.55,.05-.84,.12-.93h-9.69c-.02-.17-.03-.34-.02-.52,.03-.47,.18-.95,.77-.97,.8-.03,1.18-.03,1.77-.04h0s6.41,0,6.41,0l.17-1.07c.2-.71,.31-1.23,.82-2.14,.58-1.02,1.25-1.27,1.71-1.71-.13-.26-.32-.71-.38-1.29-.05-.6,.05-1.08,.14-1.36h-3.7l-1.06,6.1h-1.88l1.2-6.38c.15-.51,.24-1.01,.28-1.49l.02-.09h5.8c.04-.27,.13-.7,.38-1.15,.35-.63,.81-.94,1.03-1.07h-7.54c-.12-.35-.23-.7-.43-1.03-.02-.04-.1-.1-.14-.15h24.61s-.11,.11-.14,.15c-.2,.32-.31,.68-.43,1.03h-8.38c.23,.12,.73,.43,1.11,1.07,.27,.45,.36,.88,.41,1.15h6.53l.02,.09c.04,.48,.13,.98,.28,1.49l1.2,6.38h-1.88l-1.06-6.1h-3.7c.09,.28,.2,.76,.14,1.36-.05,.58-.24,1.03-.37,1.29,.46,.45,1.14,.69,1.71,1.71,.51,.9,.62,1.42,.82,2.14l.17,1.07h6.41c.59,0,.96,0,1.77,.03,.59,.02,.73,.5,.77,.97,.01,.17,0,.35-.02,.52h-9.69c.06,.09,.11,.38,.12,.93,0,.51-.09,.96-.14,1.08h5.91v26.01h-27.69v-26.01h5.91Zm-13.78,13.67h5.37v1.7h-5.72l-.72,1.33h6.43v1.33h-6.62l-.43,1.49h7.05v1.82h-8.48l.03,1.7h8.45v1.42h-8.56v1.7h4.86v1.42h-4.86v1.6h-.09v1.7h.04v1.45h-.99v-11.81c1.12-.29,1.73-1.44,1.73-1.44,0,0-.24-1.46,.55-3.24,.52-1.18,1.4-1.82,1.95-2.14Zm-6.24,7.81v10.79h-.94v-10.79h.94Zm-.51-3.28c-.03-.29-.2-1.47-1.18-2.35-.75-.67-1.56-.82-1.88-.86h-.52c-.32,.04-1.14,.18-1.88,.86-.98,.89-1.15,2.06-1.18,2.35-.04-.15-.7-2.83,.97-4.58,.71-.74,1.54-1.01,2.01-1.11h.7c.46,.1,1.3,.37,2.01,1.11,1.67,1.75,1.01,4.43,.97,4.58Zm-5.47,.7c.82-1.27,.88-1.94,1.52-2.23,.56-.25,.59-.27,.59-.27h.03s.06,.01,.63,.27c.64,.29,.7,.95,1.52,2.23,.21,.33,.43,.6,.65,.81h-5.59c.22-.22,.44-.48,.65-.81Zm-1.69,2.58h.94v10.79h-.94v-10.79Zm10.08-8.56c1-.1,1.73,.36,1.94,.51-.39,.34-1.06,1-1.52,2.07-.6,1.37-.52,2.61-.46,3.15-.08,.11-.25,.32-.55,.45-.53,.22-1.02-.05-1.09-.1,.18-.47,.47-1.38,.39-2.54-.07-1.17-.46-2.04-.7-2.48,.15-.18,.83-.94,1.97-1.05Zm-9.97-3.69c.86-1.89,2.5-2.55,2.83-2.67-.08-.07-1.03-.91-.91-2.23,.09-.97,.71-1.81,1.61-2.16h.39c.9,.35,1.52,1.19,1.61,2.16,.12,1.32-.83,2.16-.91,2.23,.33,.12,1.96,.78,2.83,2.67,.91,2,.27,3.85,.15,4.17-.24-.4-.67-1-1.37-1.53-.87-.67-1.74-.9-2.22-.99h-.58c-.48,.09-1.34,.32-2.22,.99-.7,.53-1.12,1.13-1.37,1.53-.11-.31-.76-2.17,.15-4.17Zm-2.95,6.27c-.46-1.06-1.13-1.73-1.52-2.07,.21-.15,.94-.61,1.94-.51,1.14,.11,1.82,.87,1.97,1.05-.24,.44-.63,1.31-.7,2.48-.07,1.17,.21,2.07,.39,2.54-.07,.04-.56,.31-1.09,.1-.3-.12-.47-.34-.55-.45,.06-.54,.14-1.78-.46-3.15Zm-1.05,18.51h79.04v1.24h-79.04v-1.24Z"/><path class="cls-1" d="M287.86,20s0,0,.01,0c0,0,.01,0,.01,0h-.03Z"/><path class="cls-1" d="M256.06,102.44h.02s.01,0,.02,0h-.03Z"/><path class="cls-1" d="M319.66,102.44h.02s.01,0,.01,0h-.03Z"/></g><g><path class="cls-1" d="M188.39,187.52c-.21-1.3-.78-4.17-1.67-5.06-1.72-1.72-4.85-1.77-7.15-1.77-.89,0-1.67,0-2.56,.05-.1,8.56-.21,17.16-.21,25.72,0,4.75,2.03,4.7,6.05,5.11v1.57h-16.9l.05-1.57c1.51-.21,3.81,0,4.8-1.46,.68-1.04,.68-3.49,.68-4.75,0-4.59,.1-9.23,.1-13.83v-10.75h-3.18c-.89,0-1.82,0-2.71,.05-3.5,.21-5.01,3.81-6.21,6.63-.52-.1-.99-.26-1.51-.42l2.45-9.71,.78,.1c.89,1.57,2.24,1.67,3.86,1.67h20.66c1.57,0,2.35-.47,3.24-1.72l.73,.1c.31,3.29,.31,6.57,.31,9.86-.52,.1-1.1,.16-1.62,.16Z"/><path class="cls-1" d="M207.7,213.13v-1.3c.89-.05,3.02-.05,3.5-.94,.57-1.15,.68-6.16,.68-7.62,0-4.28,.47-10.49-5.53-10.49-1.72,0-3.91,1.15-5.32,2.09v13.36c0,3.91,.83,3.18,4.02,3.6v1.3h-11.89v-1.3c1.04-.1,3.34-.05,3.65-1.36,.21-.83,.1-1.82,.1-2.71,0-9.29,.05-18.52,.05-27.81v-1.04c-1.04-.57-2.19-1.2-3.29-1.62v-.37l7.62-3.39v.37c0,6-.21,12.05-.21,18.05v1.72c2.82-2.03,4.28-3.97,8.09-3.97,1.56,0,3.29,.89,4.38,1.98,2.66,2.66,2.61,5.84,2.61,9.39,0,2.71-.31,5.37-.31,8.04,0,3.02,1.46,2.45,3.81,2.71v1.3h-11.95Z"/><path class="cls-1" d="M232.31,213.81c-5.89,0-10.49-5.37-10.49-11.06,0-3.65,1.15-7.3,3.76-9.91,1.77-1.77,4.49-3.02,7.04-3.02,4.69,0,8.5,3.34,8.76,8.09-5.11,.21-10.17,.42-15.29,.42-.1,.52-.1,1.04-.1,1.57v.78c0,5.01,3.55,9.55,8.82,9.55,2.35,0,4.75-1.72,6.26-3.39l.78,.68c-1.82,3.24-5.69,6.31-9.55,6.31Zm3.6-20.35c-.89-1.67-2.4-2.35-4.22-2.35-3.08,0-4.85,3.34-5.32,6,3.5-.05,6.89-.21,10.33-.83,0-.94-.31-1.98-.78-2.82Z"/><path class="cls-1" d="M275.89,213.13v-1.51c2.14,0,4.28-.16,5.06-1.88,.26-.52,.1-1.72-.21-2.97-.62-2.29-1.62-5.42-2.71-8.66h-10.02c-.94,2.4-1.67,4.59-2.45,6.84-.63,1.77-1.1,3.49-1.04,4.44,.1,2.24,3.08,2.03,4.75,2.24v1.51h-12.21v-1.51c1.77-.1,2.3-.42,2.82-1.04,.31-.47,1.04-.89,2.71-4.64,2.66-6.05,6-14.92,8.92-22.22,.52-1.3,.83-2.14,.83-3.65,1.67-.99,2.92-1.88,3.97-3.49h.26c3.39,10.8,5.9,18.78,8.61,27.08,.63,1.98,1.41,4.07,2.19,5.69,.26,.57,1.57,2.19,4.69,2.3v1.51h-16.17Zm-2.4-29.84c-.73,1.72-2.14,5.69-4.8,12.99h8.87c-1.83-5.74-3.02-10.07-4.07-12.99Z"/><path class="cls-1" d="M304.54,212.93l-1.36,.05c-.68,.05-1.36,0-2.03-.1-.05,1.83-.05,3.65-.05,5.48,0,1.3-.05,2.66,.05,3.91,.21,2.5,2.71,1.88,4.44,2.19v1.3h-12.73v-1.25c1.88-.16,4.07-.21,4.07-2.66v-27.97c-1.09-.62-2.35-1.15-3.55-1.56v-.68c2.56-1.04,5.06-2.09,7.67-2.97v.94c0,1.15,.05,2.19,.05,3.34,2.09-1.25,4.7-3.29,7.2-3.29,2.97,0,5.95,1.67,7.82,3.91,1.41,1.67,2.4,4.8,2.4,6.94,0,7.36-7.09,12.16-13.98,12.42Zm4.07-19.62c-.83-.37-1.98-.68-2.87-.68-1.82,0-3.18,.68-4.64,1.67v13.51c1.25,2.19,3.45,3.65,6,3.65,.99,0,1.88-.31,2.71-.78,3.08-1.83,4.28-5.48,4.28-8.87,0-3.91-1.88-6.99-5.48-8.5Z"/><path class="cls-1" d="M339.21,214.07l-.26-.21c-.05-1.04-.21-2.14-.21-3.18,0-.21-.05-.31-.21-.47-.05,0-.05-.05-.1-.05-.47,0-4.96,3.7-8.14,3.7-6,0-6.31-6.57-6.31-11.01,0-2.77,.21-5.53,.21-8.29,0-2.5-1.51-2.19-3.39-2.61v-1.04c2.56-.42,5.11-.68,7.67-.94,0,5.22,.05,10.38,.05,15.6,0,3.18,.78,5.58,4.44,5.58,1.82,0,4.54-1.57,5.74-2.92,.05-4.59,.1-9.18,.1-13.77,0-.52,0-.78-.36-1.2-.47-.47-3.13-1.04-3.91-1.2v-.94c2.82-.37,5.64-.63,8.45-.89,0,6.1-.11,12.21-.11,18.31,0,.52,.05,1.04,.11,1.57,.89,.42,2.66,.52,3.7,.68v.94l-7.46,2.35Z"/><path class="cls-1" d="M365.92,195.34c-1.1-.57-3.08-1.77-4.33-1.77-1.88,0-3.76,2.03-3.76,3.91v11.17c0,.68,.1,1.36,.47,1.93,.68,1.04,3.45,1.15,4.59,1.25v1.3h-13.41v-1.3c1.98-.1,4.02-.05,4.02-2.66v-15.08c-1.15-.58-2.35-1.15-3.55-1.57v-.68c2.56-.99,5.27-1.88,7.83-2.87v5.53c.68-.78,1.36-1.51,2.03-2.3,1.2-1.36,2.5-2.71,4.43-2.71,1.2,0,2.92,1.3,3.55,2.3-.57,1.2-1.2,2.4-1.88,3.55Z"/><path class="cls-1" d="M390.85,195.34c-2.19,4.28-4.22,8.66-6.26,12.99-.83,1.77-1.46,3.6-1.98,5.48l-1.3,.1c-.47-2.29-1.62-4.43-2.45-6.62-1.25-3.29-2.61-6.47-3.91-9.71-.63-1.56-1.25-3.29-2.09-4.75-.57-.99-1.67-1.1-2.71-1.15v-1.3h11.63v1.25c-1.2,.16-3.75,0-3.75,1.83,0,.89,3.29,9.13,3.81,10.43,.52,1.3,.99,2.66,1.51,3.97,.99-1.72,6-12.78,6-14.19,0-1.77-2.61-1.93-3.86-2.03v-1.25h9.6v1.3c-2.25,0-3.34,1.88-4.23,3.65Z"/><path class="cls-1" d="M411.82,213.71c-1.46,0-2.19-2.4-2.61-3.5-2.09,1.1-6.84,3.55-9.18,3.55s-2.66-2.97-2.66-4.75c0-2.45,.26-3.86,2.66-4.96,2.56-1.2,6.36-1.98,9.18-2.92,0,0,.05-2.82,.05-3.81,0-2.71-.78-5.27-4.69-5.27-2.03,0-2.87,.78-3.34,1.67-.26,.42-.37,1.82-.42,3.13l-4.17-.05c-.16-.89,.31-1.46,.73-1.88,1.15-1.2,4.33-3.5,5.79-4.33,1.1-.63,2.66-1.36,3.97-1.36,4.38,0,6.26,3.97,6.26,6.68v10.64c0,1.36-.31,3.7,1.67,3.7,.78,0,1.82-.57,2.5-.94l.47,.78c-1.2,.99-4.75,3.6-6.21,3.6Zm-2.61-11.27c-1.93,.47-6.26,1.41-7.51,3.18-.42,.57-.63,1.36-.63,2.03,0,1.57,1.51,3.29,3.13,3.29s3.65-1.25,5.01-2.03v-6.47Z"/></g><g><path class="cls-1" d="M199.98,269.9c-2.5,0-5.01,0-7.51,.1l.05-1.51c.73,0,3.34,.1,3.34-1.1,0-.94-1.3-2.03-1.88-2.71-2.5-2.77-5.01-5.43-7.51-8.19-.57-.62-1.93-2.35-2.77-2.56-.16-.05-.31-.05-.47-.05-.47,0-.94,0-1.41,.05v10.49c0,.89,0,1.93,.52,2.66,.89,1.2,3.08,1.31,4.49,1.41v1.51c-2.87-.05-5.79-.1-8.66-.1-2.09,0-4.23,0-6.31,.1v-1.51c1.25-.16,3.5,0,4.33-1.1,.68-.89,.52-3.65,.52-4.8,.05-4.28,.1-8.56,.1-12.83,0-1.98,.26-10.33-.68-11.48-.83-.99-3.34-.83-4.54-.99v-1.51h15.28v1.51c-1.3,.1-3.13-.21-4.22,.63-1.04,.78-.73,3.65-.78,4.85,0,.73-.05,1.62-.05,2.35,0,2.45,.05,4.9,.05,7.36h.37c2.5,0,4.17-2.35,5.74-4.07,1.51-1.67,7.2-7.56,7.2-9.55,0-1.51-2.71-1.41-3.76-1.57v-1.51h13.46v1.51c-4.65,.26-4.54,.63-7.72,3.7-1.62,1.57-3.13,3.39-4.69,5.01-1.57,1.62-2.97,3.39-4.54,5.06,1.77,1.72,3.44,3.65,5.11,5.48,2.3,2.45,4.59,4.9,6.89,7.36,.83,.89,3.08,3.23,4.02,3.81,.94,.57,1.62,.63,2.71,.78v1.51c-2.24-.1-4.44-.1-6.68-.1Z"/><path class="cls-1" d="M218.85,270.68c-5.89,0-10.49-5.37-10.49-11.06,0-3.65,1.15-7.3,3.76-9.91,1.77-1.77,4.49-3.02,7.04-3.02,4.69,0,8.5,3.34,8.76,8.09-5.11,.21-10.17,.42-15.29,.42-.1,.52-.1,1.05-.1,1.57v.78c0,5.01,3.55,9.55,8.82,9.55,2.35,0,4.75-1.72,6.26-3.39l.78,.68c-1.82,3.23-5.69,6.31-9.55,6.31Zm3.6-20.35c-.89-1.67-2.4-2.35-4.22-2.35-3.08,0-4.85,3.34-5.32,6,3.5-.05,6.89-.21,10.33-.83,0-.94-.31-1.98-.78-2.82Z"/><path class="cls-1" d="M259.68,270v-1.3c.99,0,3.18-.16,3.86-.99,.57-.73,.52-2.14,.57-3.02,.1-2.3,.31-4.59,.31-6.89,0-1.82-.1-3.76-.78-5.48-.68-1.67-2.97-2.56-4.64-2.56-2.03,0-3.81,.89-5.43,2.03,.1,.62,.1,1.3,.1,1.93,0,4.12-.05,8.24-.05,12.37,0,.52,.05,1.1,.31,1.57,.47,.94,2.71,.99,3.6,1.04v1.3h-12.31v-1.3c.94-.05,3.39-.1,3.86-1.1,.42-.94,.42-5.48,.42-6.73,0-1.62,0-3.24-.05-4.85-.05-1.3,0-2.66-.42-3.91-.57-1.67-2.97-2.61-4.64-2.61-2.14,0-3.76,.89-5.48,2.03-.16,.1-.26,.16-.26,.42v13.46c0,.58,0,1.67,.31,2.19,.62,1.1,2.76,1.04,3.86,1.15v1.25h-12.36v-1.3c3.18-.21,3.86,0,3.86-3.44,0-4.85-.05-9.65-.05-14.51-1.15-.57-2.35-1.2-3.55-1.56v-.68l7.93-2.97v5.01c1.1-.63,2.03-1.51,3.08-2.19,1.83-1.2,3.45-2.25,5.69-2.25,1.77,0,3.91,1.41,4.85,2.87,.42,.63,.73,1.3,.99,1.98,2.82-2.03,4.85-4.64,8.66-4.64,1.88,0,3.81,1.51,4.9,2.92,1.62,2.09,1.93,4.59,1.93,7.15,0,3.13-.42,6.31-.42,9.44s1.46,2.56,3.97,2.87v1.3h-12.63Z"/><path class="cls-1" d="M284.77,269.79l-1.36,.05c-.68,.05-1.36,0-2.03-.1-.05,1.83-.05,3.65-.05,5.48,0,1.3-.05,2.66,.05,3.91,.21,2.5,2.71,1.88,4.43,2.19v1.3h-12.73v-1.25c1.88-.16,4.07-.21,4.07-2.66v-27.97c-1.09-.62-2.35-1.15-3.55-1.56v-.68c2.56-1.04,5.06-2.09,7.67-2.97v.94c0,1.15,.05,2.19,.05,3.34,2.09-1.25,4.7-3.29,7.2-3.29,2.97,0,5.95,1.67,7.82,3.91,1.41,1.67,2.4,4.8,2.4,6.94,0,7.36-7.09,12.16-13.98,12.42Zm4.07-19.62c-.83-.37-1.98-.68-2.87-.68-1.82,0-3.18,.68-4.64,1.67v13.51c1.25,2.19,3.45,3.65,6,3.65,.99,0,1.88-.31,2.71-.78,3.08-1.83,4.28-5.48,4.28-8.87,0-3.91-1.88-6.99-5.48-8.5Z"/><path class="cls-1" d="M308.56,269.9h-2.14c-1.98,0-3.86,.05-5.84,.1v-1.3c4.02-.37,4.17-.37,4.17-4.59v-12.36c0-.16,0-.36-.16-.47-.68-.36-2.71-1.25-3.5-1.62v-.52l7.93-3.13v18.36c0,4.02,.37,3.97,4.23,4.33v1.3c-1.57-.05-3.13-.1-4.7-.1Zm-1.88-27.97c-1.46,0-2.71-1.15-2.71-2.66s1.25-2.66,2.71-2.66,2.71,1.15,2.71,2.66-1.25,2.66-2.71,2.66Z"/><path class="cls-1" d="M330.75,270v-1.3c.99,0,3.23-.16,3.91-.99,.57-.73,.52-2.14,.57-3.02,.1-2.4,.26-4.75,.26-7.15,0-1.83-.05-3.76-.78-5.48-.68-1.67-2.97-2.56-4.64-2.56-1.93,0-3.97,.89-5.43,2.14-.26,.21-.26,.37-.26,.68-.21,4.17,0,8.45,0,12.63,0,3.6,1.04,3.34,4.07,3.76v1.3h-12.42v-1.3c1.2-.1,3.34-.05,3.81-1.51,.21-.73,.16-5.69,.16-6.68v-9.76c-1.15-.62-2.35-1.04-3.55-1.56v-.68l7.93-2.97v5.01c1.1-.63,2.03-1.62,3.08-2.3,1.83-1.2,3.44-2.14,5.64-2.14,1.77,0,3.76,1.51,4.8,2.87,1.62,2.09,1.93,4.59,1.93,7.15,0,3.23-.42,6.47-.42,9.7s1.46,2.56,3.97,2.87v1.3h-12.63Z"/><path class="cls-1" d="M359.17,268.64c-1.51,1.36-4.02,2.03-6,2.03s-3.86-.31-5.74-.78c-.26-1.93-.57-3.91-.83-5.84l1.41-.31c1.25,2.35,2.19,5.69,5.43,5.69,2.14,0,4.22-1.36,4.22-3.65,0-6.36-10.8-5.53-10.8-12.83,0-3.91,3.86-6.37,7.46-6.37,1.57,0,2.92,.31,4.43,.63,.1,0,.26,.05,.37,.05,.42,0,.83-.16,1.2-.31,.37,1.93,.68,3.91,.89,5.9l-1.3,.31c-1.04-2.4-2.77-5.32-5.74-5.32-2.29,0-3.81,1.3-3.81,3.65,0,2.19,1.36,2.92,2.97,3.97,3.34,2.24,7.98,3.6,7.98,8.5,0,1.51-1.04,3.65-2.14,4.69Z"/><path class="cls-1" d="M364.03,270v-1.3c1.04-.05,3.13,.21,3.44-1.1,.26-1.1,.26-2.45,.26-3.6,.1-6.94,.16-13.77,.16-20.71,0-2.5-.05-4.96-.05-7.46-1.1-.58-2.09-1.25-3.23-1.67v-.36c2.5-1.15,5.06-2.25,7.62-3.39v.52c0,3.08-.1,6.1-.16,9.18-.11,7.25-.21,14.56-.21,21.81v3.44c0,3.34,.89,3.29,3.76,3.44v1.2h-11.58Zm13.93,0v-1.2c.78,0,2.87,.05,2.87-1.1,0-.83-5.84-6.83-6.89-7.83-.68-.63-1.36-1.2-2.03-1.83,2.14-1.3,4.22-2.97,6-4.75,.57-.57,2.66-2.66,2.66-3.44,0-1.1-2.14-1.25-2.87-1.3v-1.3h10.8v1.3c-2.5,.15-4.07,.99-6.05,2.56-2.19,1.72-4.28,3.6-6.42,5.37,2.66,2.87,5.27,5.74,8.04,8.5,.99,.99,2.03,2.14,3.13,3.08,.73,.57,1.51,.63,2.4,.63v1.3h-11.64Z"/><path class="cls-1" d="M400.12,269.9h-2.14c-1.98,0-3.86,.05-5.84,.1v-1.3c4.02-.37,4.17-.37,4.17-4.59v-12.36c0-.16,0-.36-.15-.47-.68-.36-2.71-1.25-3.5-1.62v-.52l7.93-3.13v18.36c0,4.02,.37,3.97,4.23,4.33v1.3c-1.57-.05-3.13-.1-4.7-.1Zm-1.88-27.97c-1.46,0-2.71-1.15-2.71-2.66s1.25-2.66,2.71-2.66,2.71,1.15,2.71,2.66-1.25,2.66-2.71,2.66Z"/></g><g><path class="cls-1" d="M265.44,328.69c2.02,.02,2.57,.04,3.31,.24,1.53,.47,2.7,1.84,2.7,3.5,0,1.41-.78,2.9-2.58,3.17,1.7,.31,3.27,1.7,3.27,4.05,0,1.76-.86,3.31-2.74,3.97-.96,.37-1.72,.39-3.46,.39h-5.99v-15.31h5.48Zm-2.62,6.07h2.96c1.82,0,2.7-.55,2.7-1.68,0-1.41-1.1-1.9-2.74-1.9h-2.92v3.58Zm0,6.75h3.72c1.68,0,2.66-.59,2.66-2.11,0-1.41-.98-2.35-3.27-2.35h-3.11v4.46Z"/><path class="cls-1" d="M276.53,344l6.52-15.33h2.72l6.46,15.33h-3.27l-1.35-3.47h-6.54l-1.35,3.47h-3.19Zm5.5-5.93h4.62l-2.31-5.89-2.31,5.89Z"/><path class="cls-1" d="M300.66,341.44h6.46v2.56h-9.32v-15.33h2.86v12.78Z"/><path class="cls-1" d="M312.93,328.67h2.86v15.33h-2.86v-15.33Z"/></g><rect class="cls-1" x="176.9" y="303.19" width="221.96" height="1.98"/></svg>